<?xml version="1.0" encoding="UTF-8"?>
<svg width="64px" height="64px" viewBox="0 0 64 64" version="1.1" xmlns="http://www.w3.org/2000/svg" xmlns:xlink="http://www.w3.org/1999/xlink">
    <title>上传</title>
    <g id="页面-1" stroke="none" stroke-width="1" fill="none" fill-rule="evenodd" opacity="0.800000012">
        <g id="项目查重系统-送检数据录入-步骤一" transform="translate(-648.000000, -345.000000)" fill-rule="nonzero">
            <g id="上传" transform="translate(648.000000, 345.000000)">
                <rect id="矩形" fill="#000000" opacity="0" x="0" y="0" width="64" height="64"></rect>
                <polygon id="路径" fill="#E1E1E1" points="35.4666667 55.6453333 30.1333333 55.6453333 30.1333333 39.6453333 24.3229722 39.6453333 32.8 29.3333333 41.2770278 39.6453333 35.4666667 39.6453333"></polygon>
                <path d="M48,45.3333333 C51.9526255,45.3407073 55.3181788,42.4603135 55.921258,38.5539599 C56.5243371,34.6476064 54.1841515,30.8863367 50.4133333,29.7013333 L47.9226667,28.9146667 L47.016,26.4613333 C44.6946317,20.1732996 38.7015107,15.9973177 31.9986667,15.9973177 C25.2958226,15.9973177 19.3027016,20.1732996 16.9813333,26.4613333 L16.0773333,28.9146667 L13.5866667,29.7013333 C9.83093103,30.8994009 7.50646539,34.65341 8.10795232,38.5494503 C8.70943926,42.4454906 12.0578149,45.3237028 16,45.3333333 C16,45.3333333 16,50.6669728 16,50.6669728 C9.41576044,50.6743036 3.81176166,45.8746324 2.80727662,39.367461 C1.80279159,32.8602897 5.69861031,26.5941711 11.9786667,24.616 C15.0728816,16.2319813 23.0632257,10.6637614 32,10.6637614 C40.9367743,10.6637614 48.9271184,16.2319813 52.0213333,24.616 C58.2862887,26.6072544 62.1663649,32.8661029 61.1634742,39.362946 C60.1605835,45.859789 54.5737867,50.6572756 48,50.6669728 C48,50.6669728 47.9226667,45.3333333 48,45.3333333 Z" id="路径" fill="#E1E1E1"></path>
            </g>
        </g>
    </g>
</svg>